<svg width="29" height="32" viewBox="0 0 29 32" fill="none" xmlns="http://www.w3.org/2000/svg">
<path d="M9.08377 23.545L7.83755 21.523L5.20614 21.9958L8.66684 15.8581H1.91858V31.9997H13.4171V15.8581L9.08377 23.545Z" fill="#0047CC"/>
<path d="M28.008 8.15624H20.3724C20.8189 7.92614 21.2176 7.68578 21.5708 7.43061C22.9286 6.45779 23.6497 5.22524 23.6474 4.0018C23.6474 2.99822 23.1724 1.56062 22.4821 0.961434C21.7906 0.355412 20.8736 0 19.8951 0C18.8494 0 17.8777 0.358829 17.045 0.917008C15.793 1.75542 14.8134 3.5712 14.1151 4.9564C14.0798 5.02589 14.0445 5.0931 14.0103 5.16031C13.7551 4.62605 13.4567 3.5564 13.1183 3.06884C12.526 2.2236 11.814 1.47633 10.9779 0.917008C10.1475 0.358829 9.17691 0 8.13232 0C7.09115 0.00341742 6.13769 0.439708 5.42459 1.11294C4.7149 1.77934 4.21824 3.27958 4.21368 4.35152C4.20912 4.9769 4.39139 5.63191 4.76844 6.22768C5.24232 6.97382 5.99302 7.62427 7.02963 8.15624H0L0.015948 14.5753H13.2163V8.15624H14.8248V14.5753H28.0274L28.008 8.15624ZM7.48529 6.14908C6.95559 5.81417 6.6298 5.47813 6.43842 5.17625C6.25274 4.87666 6.18781 4.35038 6.18781 4.09179C6.18325 3.66006 6.39855 2.90253 6.7813 2.54712C7.15494 2.19057 7.663 1.97071 8.11865 1.97071H8.13232C8.71898 1.97527 9.29994 2.1712 9.88546 2.55737C10.7569 3.13264 11.5782 4.69668 12.1489 5.84265C12.4474 6.42589 12.6752 7.03533 12.829 7.6311C10.1851 7.35771 8.47634 6.77447 7.48529 6.14908ZM16.5221 4.75363C16.9982 4.07129 17.5598 2.94582 18.1419 2.55737C18.7206 2.1712 19.3084 1.97527 19.8951 1.97071H19.9008C20.3895 1.97071 20.8599 2.16209 21.18 2.44573C21.5013 2.73394 21.6733 3.26136 21.6733 3.63272C21.6664 4.07129 21.4398 5.08057 20.4157 5.82898C19.444 6.53753 17.7569 7.26316 15.1631 7.77121C15.408 6.74257 15.8876 5.65355 16.5221 4.75363Z" fill="#0047CC"/>
<path d="M22.8365 21.9696L20.2062 21.523L18.9645 23.5689L14.6871 15.9618V31.9997H26.1275V15.8581H19.3792L22.8365 21.9696Z" fill="#0047CC"/>
</svg>
