<svg width="14" height="21" viewBox="0 0 14 21" fill="none" xmlns="http://www.w3.org/2000/svg">
<path d="M4.56995 1.14543L0.361873 5.35733C-0.0778244 5.79742 -0.0774864 6.51062 0.362605 6.95031C0.802697 7.39001 1.51589 7.38967 1.95559 6.94958L6.16327 2.73802C6.60246 2.29882 7.31706 2.29882 7.75625 2.73802C7.75788 2.73965 7.75957 2.74128 7.7612 2.74292L12.0256 6.95482C12.4682 7.39198 13.1814 7.38759 13.6186 6.94496C13.8354 6.72548 13.9436 6.43943 13.9436 6.15349C13.9436 5.86287 13.8318 5.57237 13.6087 5.35204L9.34653 1.14227C8.02873 -0.172594 5.88701 -0.171637 4.56995 1.14543Z" fill="#EF2993"/>
<path d="M5.8314 6.94193L5.8314 18.9383C5.8314 19.5604 6.3357 20.0647 6.95782 20.0647C7.57994 20.0647 8.08424 19.5604 8.08424 18.9383L8.08423 6.94193C8.08423 6.31981 7.57994 5.81552 6.95782 5.81552C6.3357 5.81552 5.8314 6.31981 5.8314 6.94193Z" fill="#EF2993"/>
</svg>
