<svg width="30" height="30" viewBox="0 0 30 30" fill="none" xmlns="http://www.w3.org/2000/svg">
<g clip-path="url(#clip0_1_318)">
<path d="M18.1906 13.7658C17.869 13.4442 17.3466 13.4442 17.025 13.7658L15.824 14.9668V1.3044C15.824 0.849374 15.4548 0.480148 14.9997 0.480148C14.5447 0.480148 14.1755 0.849374 14.1755 1.3044V16.9565C14.1755 17.2892 14.3762 17.5908 14.6845 17.718C14.7875 17.7611 14.8949 17.7808 14.9997 17.7808C15.2139 17.7808 15.425 17.6968 15.5818 17.5399L18.1905 14.9312C18.1905 14.9312 18.1906 14.9312 18.1906 14.9312C18.5121 14.6097 18.5121 14.0873 18.1906 13.7658Z" fill="#0047CC" stroke="#0047CC" stroke-width="0.344118"/>
<path d="M14.4165 17.5398L14.4172 17.5404C14.5782 17.6998 14.789 17.7806 14.9999 17.7806C15.2106 17.7806 15.4219 17.6999 15.582 17.5398L15.582 17.5398C15.9036 17.2182 15.9036 16.6958 15.582 16.3743L12.9733 13.7656C12.6518 13.444 12.1293 13.444 11.8078 13.7656C11.4863 14.0871 11.4863 14.6095 11.8078 14.9311L14.4165 17.5398L14.4165 17.5398Z" fill="#0047CC" stroke="#0047CC" stroke-width="0.344118"/>
<path d="M24.6742 7.80769L24.6742 7.80764C23.7932 6.48683 22.3191 5.69763 20.7328 5.69763H17.6089C17.1539 5.69763 16.7846 6.06686 16.7846 6.52188C16.7846 6.97691 17.1539 7.34613 17.6089 7.34613H20.7328C21.767 7.34613 22.7281 7.86002 23.3027 8.7213L28.0048 15.7752L28.0049 15.7752C28.3446 16.2842 28.5237 16.8771 28.5237 17.4888V26.087C28.5237 27.0707 27.723 27.8715 26.7393 27.8715H3.26108C2.2774 27.8715 1.47663 27.0707 1.47663 26.087V17.5853C1.47663 16.925 1.6823 16.2938 2.09306 15.7316L2.09322 15.7317L2.0978 15.7247L6.31605 9.32302L6.31608 9.32299C7.13207 8.08397 8.50368 7.34607 9.98496 7.34607H12.3915C12.8465 7.34607 13.2157 6.97685 13.2157 6.52182C13.2157 6.0668 12.8466 5.69763 12.3915 5.69763H9.98502C7.94715 5.69763 6.06057 6.71409 4.93957 8.41636L0.741946 14.7884C0.144182 15.6063 -0.171815 16.5732 -0.171815 17.5853V26.087C-0.171815 27.9794 1.36869 29.5199 3.26108 29.5199H26.7393C28.6317 29.5199 30.1722 27.9794 30.1722 26.087V17.4888C30.1722 16.5509 29.8974 15.6425 29.3764 14.8616C29.3764 14.8616 29.3764 14.8616 29.3764 14.8615L24.6742 7.80769Z" fill="#0047CC" stroke="#0047CC" stroke-width="0.344118"/>
<path d="M28.6963 16.1323H25.4354C23.543 16.1323 22.0025 17.6728 22.0025 19.5652C22.0025 20.5489 21.2017 21.3497 20.2181 21.3497H9.78328C8.79959 21.3497 7.99882 20.5489 7.99882 19.5652C7.99882 17.6728 6.45832 16.1323 4.56593 16.1323H1.30502C0.85 16.1323 0.480773 16.5016 0.480773 16.9566C0.480773 17.4116 0.850021 17.7808 1.30502 17.7808H4.56586C5.54955 17.7808 6.35032 18.5815 6.35032 19.5652C6.35032 21.4576 7.89083 22.9981 9.78322 22.9981H20.218C22.1104 22.9981 23.651 21.4576 23.651 19.5652C23.651 18.5815 24.4517 17.7808 25.4354 17.7808H28.6963C29.1513 17.7808 29.5205 17.4115 29.5205 16.9565C29.5205 16.5015 29.1513 16.1323 28.6963 16.1323Z" fill="#0047CC" stroke="#0047CC" stroke-width="0.344118"/>
</g>
<defs>
<clipPath id="clip0_1_318">
<rect width="29.9999" height="29.9999" fill="white"/>
</clipPath>
</defs>
</svg>
