<svg width="29" height="26" viewBox="0 0 29 26" fill="none" xmlns="http://www.w3.org/2000/svg">
<path d="M14.2793 7.92794L18.4308 12.0795L18.4506 11.862C18.4506 9.68079 16.678 7.90817 14.4968 7.90817L14.2793 7.92794Z" fill="white"/>
<path d="M14.4959 5.27111C18.1335 5.27111 21.0857 8.22333 21.0857 11.8609C21.0857 12.7109 20.9144 13.5215 20.6178 14.2661L24.4728 18.1211C26.4629 16.4605 28.0313 14.3122 29 11.8609C26.7134 6.0751 21.0923 1.97626 14.496 1.97626C12.6508 1.97626 10.8848 2.30572 9.24399 2.8988L12.0908 5.73896C12.8353 5.44903 13.6459 5.27111 14.4959 5.27111Z" fill="white"/>
<path d="M1.31793 1.68044L4.32285 4.68537L4.92254 5.28505C2.74792 6.98521 1.028 9.24551 0 11.8616C2.28007 17.6474 7.90769 21.7462 14.4974 21.7462C16.5403 21.7462 18.4908 21.3508 20.2767 20.6325L20.8368 21.1927L24.6787 25.041L26.359 23.3673L2.99831 6.10352e-05L1.31793 1.68044ZM8.60622 8.96213L10.6424 10.9984C10.5831 11.2817 10.5436 11.5651 10.5436 11.8616C10.5436 14.0428 12.3162 15.8154 14.4974 15.8154C14.794 15.8154 15.0774 15.7759 15.3541 15.7166L17.3904 17.7528C16.5139 18.1877 15.5387 18.4514 14.4974 18.4514C10.8599 18.4514 7.90769 15.4991 7.90769 11.8616C7.90769 10.8204 8.1713 9.84513 8.60622 8.96213Z" fill="white"/>
</svg>
