<svg width="18" height="19" viewBox="0 0 18 19" fill="none" xmlns="http://www.w3.org/2000/svg">
<path d="M0.635162 15.4908V15.4906C0.635286 15.3934 0.656119 15.2972 0.696276 15.2087C0.736292 15.1204 0.794582 15.0416 0.867291 14.9775C1.38939 14.5036 1.84603 13.9623 2.22515 13.3678C2.64409 12.5469 2.89551 11.6508 2.96476 10.7317L2.96476 7.97023C2.96476 7.97019 2.96476 7.97015 2.96476 7.97011V7.96998H3.08976C3.08681 6.50594 3.61453 5.09044 4.57518 3.98564C5.53583 2.88084 6.86431 2.16162 8.31456 1.96118L0.635162 15.4908ZM0.635162 15.4908V16.2524C0.635162 16.4341 0.707332 16.6083 0.835794 16.7367C0.964256 16.8652 1.13849 16.9374 1.32016 16.9374H16.8882C17.0698 16.9374 17.2441 16.8652 17.3725 16.7367C17.501 16.6083 17.5732 16.4341 17.5732 16.2524V15.4908V15.4906C17.573 15.3934 17.5522 15.2972 17.512 15.2087C17.472 15.1202 17.4135 15.0413 17.3406 14.9772C16.8107 14.5047 16.3465 13.9633 15.9606 13.3674M0.635162 15.4908L15.9606 13.3674M15.2212 7.97029C15.2249 6.46457 14.6788 5.00929 13.6852 3.87788C12.7159 2.77409 11.386 2.05267 9.93476 1.84092V1.22758C9.93476 0.996152 9.84283 0.774203 9.67918 0.610559C9.51554 0.446915 9.29359 0.35498 9.06216 0.35498C8.83073 0.35498 8.60878 0.446915 8.44514 0.610559C8.2815 0.774203 8.18956 0.996153 8.18956 1.22758V1.85324L15.0962 7.96998M15.2212 7.97029L15.0962 7.96998M15.2212 7.97029V7.96998H15.0962M15.2212 7.97029V10.7317M15.0962 7.96998V10.7364M15.2212 10.7317C15.221 10.7302 15.2209 10.7286 15.2208 10.7271L15.0962 10.7364M15.2212 10.7317C15.2904 11.6506 15.5417 12.5466 15.9606 13.3674M15.2212 10.7317V10.7364H15.0962M15.0962 10.7364L15.9606 13.3674M14.8168 14.0791C15.1547 14.6144 15.5468 15.1131 15.9869 15.5674H2.22702C2.6671 15.1131 3.05924 14.6144 3.39707 14.0791L3.39735 14.0793L3.40165 14.0712C3.9503 13.0426 4.27042 11.9076 4.34014 10.7439L4.34036 10.7439V10.7364V7.96998H4.34043L4.34029 7.96575C4.31865 7.32621 4.42592 6.68886 4.65573 6.09164C4.88553 5.49443 5.23317 4.94956 5.67793 4.48949C6.12269 4.02942 6.65549 3.66356 7.24459 3.41369C7.83369 3.16382 8.46706 3.03505 9.10696 3.03505C9.74686 3.03505 10.3802 3.16382 10.9693 3.41369C11.5584 3.66356 12.0912 4.02942 12.536 4.48949C12.9808 4.94956 13.3284 5.49443 13.5582 6.09164C13.788 6.68886 13.8953 7.32621 13.8736 7.96575L13.8736 7.96575V7.96998V10.7364H13.8733L13.8738 10.7439C13.9435 11.9076 14.2636 13.0426 14.8123 14.0712L14.812 14.0714L14.8168 14.0791Z" fill="#EFF2F8" stroke="#EFF2F8" stroke-width="0.25"/>
<path d="M9.13395 18.8078L9.13395 18.8078L9.13502 18.8078C9.51728 18.799 9.88411 18.6553 10.1706 18.4021C10.4571 18.1489 10.6449 17.8025 10.7006 17.4242L10.7217 17.281H10.5769H7.63135H7.48655L7.50769 17.4243C7.56501 17.8128 7.76153 18.1673 8.06068 18.4218C8.35983 18.6763 8.74124 18.8135 9.13395 18.8078Z" fill="#EFF2F8" stroke="#EFF2F8" stroke-width="0.25"/>
</svg>
