<svg width="14" height="21" viewBox="0 0 14 21" fill="none" xmlns="http://www.w3.org/2000/svg">
<path d="M9.43005 19.8546L13.6381 15.6427C14.0778 15.2026 14.0775 14.4894 13.6374 14.0497C13.1973 13.61 12.4841 13.6103 12.0444 14.0504L7.83673 18.262C7.39754 18.7012 6.68294 18.7012 6.24375 18.262C6.24212 18.2603 6.24043 18.2587 6.2388 18.2571L1.9744 14.0452C1.53178 13.608 0.818584 13.6124 0.381421 14.055C0.164585 14.2745 0.0563923 14.5606 0.0563922 14.8465C0.0563922 15.1371 0.16819 15.4276 0.391278 15.6479L4.65347 19.8577C5.97127 21.1726 8.11299 21.1716 9.43005 19.8546Z" fill="#FF8B44"/>
<path d="M8.1686 14.0581L8.1686 2.06169C8.1686 1.43957 7.66431 0.935274 7.04219 0.935274C6.42006 0.935273 5.91577 1.43957 5.91577 2.06169L5.91577 14.058C5.91577 14.6802 6.42006 15.1845 7.04218 15.1845C7.66431 15.1845 8.1686 14.6802 8.1686 14.0581Z" fill="#FF8B44"/>
</svg>
