<svg width="34" height="34" viewBox="0 0 34 34" fill="none" xmlns="http://www.w3.org/2000/svg">
<path d="M13.8899 0.954122L13.8899 0.954117C14.9285 0.781191 15.9868 0.896098 16.9596 1.27439C17.6128 1.01904 18.3217 0.875 19.0645 0.875C22.2639 0.875 24.8669 3.47806 24.8669 6.67742C24.8669 9.87678 22.2639 12.4798 19.0645 12.4798C17.6626 12.4798 16.3316 11.976 15.2779 11.0657L10.6819 11.4193C10.6819 11.4193 10.6819 11.4193 10.6818 11.4193C10.4376 11.4382 10.1923 11.4476 9.9471 11.4476C8.72301 11.4476 7.52585 11.2175 6.38952 10.7625L13.8899 0.954122ZM13.8899 0.954122L9.07343 1.75721C9.07341 1.75721 9.07339 1.75722 9.07338 1.75722C8.39719 1.86966 7.72991 2.05583 7.09028 2.3121L5.59963 2.90816L1.03031 1.76596L0.875 1.72713V1.88723V11.4681V11.6282L1.03031 11.5894L5.59966 10.4472L6.38941 10.7625L13.8899 0.954122ZM14.6917 6.98815L14.6918 6.98816L16.239 7.37523L14.6917 6.98815ZM14.6917 6.98815C14.6502 6.97776 14.6157 6.96771 14.5792 6.95704C14.5741 6.95556 14.569 6.95407 14.5638 6.95256C14.5623 6.93712 14.5608 6.92199 14.5594 6.9071C14.5515 6.82782 14.5444 6.7551 14.5444 6.67742C14.5444 4.18492 16.5725 2.15726 19.0645 2.15726C21.5565 2.15726 23.5847 4.18492 23.5847 6.67742C23.5847 9.16992 21.5565 11.1976 19.0645 11.1976M14.6917 6.98815L19.0645 11.1976M19.0645 11.1976C18.2967 11.1976 17.5561 11.0028 16.8979 10.6411M19.0645 11.1976L16.8979 10.6411M16.8979 10.6411C17.347 10.3031 17.6411 9.76947 17.6411 9.17032C17.6411 8.31969 17.0643 7.58117 16.2391 7.37525L16.8979 10.6411ZM13.2636 6.54844C12.7031 6.34806 12.1532 6.11765 11.6221 5.85231L11.6219 5.85225C11.5143 5.79863 11.4476 5.69083 11.4476 5.56981C11.4476 5.39617 11.5894 5.25403 11.7634 5.25403H13.4438C13.3379 5.66937 13.274 6.10203 13.2636 6.54844ZM7.56667 3.50264L7.56668 3.50264C8.12094 3.28094 8.69908 3.11925 9.2842 3.02215L9.2843 3.02214L14.1008 2.21904L14.1008 2.21904C14.5286 2.14767 14.9612 2.14568 15.3882 2.19967C14.7951 2.68692 14.3006 3.28798 13.9379 3.97177H11.7634C10.8819 3.97177 10.1653 4.68838 10.1653 5.56981C10.1653 6.17822 10.5038 6.72621 11.0488 6.99924L11.0489 6.9993C12.1104 7.52981 13.2313 7.94434 14.3813 8.23146C14.3813 8.23146 14.3813 8.23147 14.3813 8.23147L15.9284 8.6185C15.9284 8.61851 15.9285 8.61852 15.9285 8.61852C16.1822 8.68252 16.3589 8.90926 16.3589 9.17032C16.3589 9.46463 16.128 9.71392 15.8343 9.73679L15.8342 9.7368L10.5832 10.1409L10.583 10.1409C9.31558 10.2401 8.04707 10.0449 6.86581 9.57195L6.86578 9.57194L6.28629 9.34015V4.0147L7.56667 3.50264ZM5.00403 4.08134V9.2735L2.15726 9.98519V3.36965L5.00403 4.08134Z" fill="#0047CC" stroke="#0047CC" stroke-width="0.25"/>
<mask id="path-2-outside-1_1_337" maskUnits="userSpaceOnUse" x="5.16132" y="12.3871" width="29" height="21" fill="black">
<rect fill="white" x="5.16132" y="12.3871" width="29" height="21"/>
<path d="M31.5827 19.879L29.319 16.4839H29.3871C30.2408 16.4839 30.9355 15.7892 30.9355 14.9355C30.9355 14.0818 30.2408 13.3871 29.3871 13.3871H9.77422C8.92054 13.3871 8.22583 14.0818 8.22583 14.9355C8.22583 15.7892 8.92054 16.4839 9.77422 16.4839H9.84235L7.57912 19.879C6.65164 21.2694 6.16132 22.8885 6.16132 24.5603C6.16132 29.2142 9.94712 33 14.6011 33H15.9678H24.2258H24.5603C29.2142 33 33 29.2142 33 24.5603C33 22.8885 32.5097 21.2694 31.5827 19.879ZM9.25809 14.9355C9.25809 14.6506 9.48983 14.4194 9.77422 14.4194H29.3871C29.6715 14.4194 29.9033 14.6506 29.9033 14.9355C29.9033 15.2204 29.6715 15.4516 29.3871 15.4516H9.77422C9.48983 15.4516 9.25809 15.2204 9.25809 14.9355ZM15.4516 27.8387V26.8065H16.4839V27.8387H17.5162V26.8065H18.0323H18.5484V27.8387H19.5807V26.8065H20.6129V27.8387H21.6452V26.8065H22.1613C22.4457 26.8065 22.6774 27.0377 22.6774 27.3226V28.3548C22.6774 28.6397 22.4457 28.871 22.1613 28.871H15.9678H13.9033C13.6189 28.871 13.3871 28.6397 13.3871 28.3548V27.3226C13.3871 27.0377 13.6189 26.8065 13.9033 26.8065H14.4194V27.8387H15.4516ZM17.5162 25.2581V24.2258C17.5162 23.9409 17.7479 23.7097 18.0323 23.7097H18.5484V24.7419H19.5807V23.7097H20.6129V24.7419H21.6452V23.7097H22.6774V24.7419H23.7097V23.7097H24.2258H24.742V24.7419H25.7742V23.7097H26.2903C26.5747 23.7097 26.8065 23.9409 26.8065 24.2258V25.2581C26.8065 25.543 26.5747 25.7742 26.2903 25.7742H22.1613H18.0323C17.7479 25.7742 17.5162 25.543 17.5162 25.2581ZM17.5162 21.6452V20.6129H18.5484V21.6452H19.5807V20.6129H20.6129V21.6452H21.6452V20.6129H22.6774V21.6452H23.7097V20.6129H24.2258C24.5102 20.6129 24.742 20.8441 24.742 21.129V22.1613C24.742 22.4462 24.5102 22.6774 24.2258 22.6774H18.0323H15.9678C15.6834 22.6774 15.4516 22.4462 15.4516 22.1613V21.129C15.4516 20.8441 15.6834 20.6129 15.9678 20.6129H16.4839V21.6452H17.5162ZM15.9678 31.9677C15.6834 31.9677 15.4516 31.7365 15.4516 31.4516V30.4194C15.4516 30.1345 15.6834 29.9032 15.9678 29.9032H16.4839V30.9355H17.5162V29.9032H18.5484V30.9355H19.5807V29.9032H20.6129V30.9355H21.6452V29.9032H22.1613H22.6774V30.9355H23.7097V29.9032H24.2258C24.5102 29.9032 24.742 30.1345 24.742 30.4194V31.4516C24.742 31.7365 24.5102 31.9677 24.2258 31.9677H15.9678ZM25.7097 31.8692C25.7474 31.7355 25.7742 31.5972 25.7742 31.4516V30.4194C25.7742 29.5657 25.0795 28.871 24.2258 28.871H23.6147C23.6725 28.7089 23.7097 28.5365 23.7097 28.3548V27.3226C23.7097 27.1409 23.6725 26.9685 23.6147 26.8065H26.2903C27.144 26.8065 27.8387 26.1117 27.8387 25.2581V24.2258C27.8387 23.3721 27.144 22.6774 26.2903 22.6774H25.6793C25.7371 22.5154 25.7742 22.343 25.7742 22.1613V21.129C25.7742 20.2754 25.0795 19.5806 24.2258 19.5806H15.9678C15.1141 19.5806 14.4194 20.2754 14.4194 21.129V22.1613C14.4194 23.015 15.1141 23.7097 15.9678 23.7097H16.5789C16.5211 23.8717 16.4839 24.0441 16.4839 24.2258V25.2581C16.4839 25.4397 16.5211 25.6121 16.5789 25.7742H13.9033C13.0496 25.7742 12.3549 26.4689 12.3549 27.3226V28.3548C12.3549 29.2085 13.0496 29.9032 13.9033 29.9032H14.5143C14.4565 30.0653 14.4194 30.2377 14.4194 30.4194V31.4516C14.4194 31.6317 14.456 31.8026 14.5133 31.9631C10.4694 31.9156 7.19357 28.615 7.19357 24.5603C7.19357 23.0929 7.62351 21.672 8.43745 20.4514L11.0826 16.4839H28.0787L30.7239 20.4519C31.5378 21.6725 31.9678 23.0934 31.9678 24.5608C31.9678 28.2526 29.2488 31.3138 25.7097 31.8692Z"/>
</mask>
<path d="M31.5827 19.879L29.319 16.4839H29.3871C30.2408 16.4839 30.9355 15.7892 30.9355 14.9355C30.9355 14.0818 30.2408 13.3871 29.3871 13.3871H9.77422C8.92054 13.3871 8.22583 14.0818 8.22583 14.9355C8.22583 15.7892 8.92054 16.4839 9.77422 16.4839H9.84235L7.57912 19.879C6.65164 21.2694 6.16132 22.8885 6.16132 24.5603C6.16132 29.2142 9.94712 33 14.6011 33H15.9678H24.2258H24.5603C29.2142 33 33 29.2142 33 24.5603C33 22.8885 32.5097 21.2694 31.5827 19.879ZM9.25809 14.9355C9.25809 14.6506 9.48983 14.4194 9.77422 14.4194H29.3871C29.6715 14.4194 29.9033 14.6506 29.9033 14.9355C29.9033 15.2204 29.6715 15.4516 29.3871 15.4516H9.77422C9.48983 15.4516 9.25809 15.2204 9.25809 14.9355ZM15.4516 27.8387V26.8065H16.4839V27.8387H17.5162V26.8065H18.0323H18.5484V27.8387H19.5807V26.8065H20.6129V27.8387H21.6452V26.8065H22.1613C22.4457 26.8065 22.6774 27.0377 22.6774 27.3226V28.3548C22.6774 28.6397 22.4457 28.871 22.1613 28.871H15.9678H13.9033C13.6189 28.871 13.3871 28.6397 13.3871 28.3548V27.3226C13.3871 27.0377 13.6189 26.8065 13.9033 26.8065H14.4194V27.8387H15.4516ZM17.5162 25.2581V24.2258C17.5162 23.9409 17.7479 23.7097 18.0323 23.7097H18.5484V24.7419H19.5807V23.7097H20.6129V24.7419H21.6452V23.7097H22.6774V24.7419H23.7097V23.7097H24.2258H24.742V24.7419H25.7742V23.7097H26.2903C26.5747 23.7097 26.8065 23.9409 26.8065 24.2258V25.2581C26.8065 25.543 26.5747 25.7742 26.2903 25.7742H22.1613H18.0323C17.7479 25.7742 17.5162 25.543 17.5162 25.2581ZM17.5162 21.6452V20.6129H18.5484V21.6452H19.5807V20.6129H20.6129V21.6452H21.6452V20.6129H22.6774V21.6452H23.7097V20.6129H24.2258C24.5102 20.6129 24.742 20.8441 24.742 21.129V22.1613C24.742 22.4462 24.5102 22.6774 24.2258 22.6774H18.0323H15.9678C15.6834 22.6774 15.4516 22.4462 15.4516 22.1613V21.129C15.4516 20.8441 15.6834 20.6129 15.9678 20.6129H16.4839V21.6452H17.5162ZM15.9678 31.9677C15.6834 31.9677 15.4516 31.7365 15.4516 31.4516V30.4194C15.4516 30.1345 15.6834 29.9032 15.9678 29.9032H16.4839V30.9355H17.5162V29.9032H18.5484V30.9355H19.5807V29.9032H20.6129V30.9355H21.6452V29.9032H22.1613H22.6774V30.9355H23.7097V29.9032H24.2258C24.5102 29.9032 24.742 30.1345 24.742 30.4194V31.4516C24.742 31.7365 24.5102 31.9677 24.2258 31.9677H15.9678ZM25.7097 31.8692C25.7474 31.7355 25.7742 31.5972 25.7742 31.4516V30.4194C25.7742 29.5657 25.0795 28.871 24.2258 28.871H23.6147C23.6725 28.7089 23.7097 28.5365 23.7097 28.3548V27.3226C23.7097 27.1409 23.6725 26.9685 23.6147 26.8065H26.2903C27.144 26.8065 27.8387 26.1117 27.8387 25.2581V24.2258C27.8387 23.3721 27.144 22.6774 26.2903 22.6774H25.6793C25.7371 22.5154 25.7742 22.343 25.7742 22.1613V21.129C25.7742 20.2754 25.0795 19.5806 24.2258 19.5806H15.9678C15.1141 19.5806 14.4194 20.2754 14.4194 21.129V22.1613C14.4194 23.015 15.1141 23.7097 15.9678 23.7097H16.5789C16.5211 23.8717 16.4839 24.0441 16.4839 24.2258V25.2581C16.4839 25.4397 16.5211 25.6121 16.5789 25.7742H13.9033C13.0496 25.7742 12.3549 26.4689 12.3549 27.3226V28.3548C12.3549 29.2085 13.0496 29.9032 13.9033 29.9032H14.5143C14.4565 30.0653 14.4194 30.2377 14.4194 30.4194V31.4516C14.4194 31.6317 14.456 31.8026 14.5133 31.9631C10.4694 31.9156 7.19357 28.615 7.19357 24.5603C7.19357 23.0929 7.62351 21.672 8.43745 20.4514L11.0826 16.4839H28.0787L30.7239 20.4519C31.5378 21.6725 31.9678 23.0934 31.9678 24.5608C31.9678 28.2526 29.2488 31.3138 25.7097 31.8692Z" fill="#0047CC"/>
<path d="M31.5827 19.879L29.319 16.4839H29.3871C30.2408 16.4839 30.9355 15.7892 30.9355 14.9355C30.9355 14.0818 30.2408 13.3871 29.3871 13.3871H9.77422C8.92054 13.3871 8.22583 14.0818 8.22583 14.9355C8.22583 15.7892 8.92054 16.4839 9.77422 16.4839H9.84235L7.57912 19.879C6.65164 21.2694 6.16132 22.8885 6.16132 24.5603C6.16132 29.2142 9.94712 33 14.6011 33H15.9678H24.2258H24.5603C29.2142 33 33 29.2142 33 24.5603C33 22.8885 32.5097 21.2694 31.5827 19.879ZM9.25809 14.9355C9.25809 14.6506 9.48983 14.4194 9.77422 14.4194H29.3871C29.6715 14.4194 29.9033 14.6506 29.9033 14.9355C29.9033 15.2204 29.6715 15.4516 29.3871 15.4516H9.77422C9.48983 15.4516 9.25809 15.2204 9.25809 14.9355ZM15.4516 27.8387V26.8065H16.4839V27.8387H17.5162V26.8065H18.0323H18.5484V27.8387H19.5807V26.8065H20.6129V27.8387H21.6452V26.8065H22.1613C22.4457 26.8065 22.6774 27.0377 22.6774 27.3226V28.3548C22.6774 28.6397 22.4457 28.871 22.1613 28.871H15.9678H13.9033C13.6189 28.871 13.3871 28.6397 13.3871 28.3548V27.3226C13.3871 27.0377 13.6189 26.8065 13.9033 26.8065H14.4194V27.8387H15.4516ZM17.5162 25.2581V24.2258C17.5162 23.9409 17.7479 23.7097 18.0323 23.7097H18.5484V24.7419H19.5807V23.7097H20.6129V24.7419H21.6452V23.7097H22.6774V24.7419H23.7097V23.7097H24.2258H24.742V24.7419H25.7742V23.7097H26.2903C26.5747 23.7097 26.8065 23.9409 26.8065 24.2258V25.2581C26.8065 25.543 26.5747 25.7742 26.2903 25.7742H22.1613H18.0323C17.7479 25.7742 17.5162 25.543 17.5162 25.2581ZM17.5162 21.6452V20.6129H18.5484V21.6452H19.5807V20.6129H20.6129V21.6452H21.6452V20.6129H22.6774V21.6452H23.7097V20.6129H24.2258C24.5102 20.6129 24.742 20.8441 24.742 21.129V22.1613C24.742 22.4462 24.5102 22.6774 24.2258 22.6774H18.0323H15.9678C15.6834 22.6774 15.4516 22.4462 15.4516 22.1613V21.129C15.4516 20.8441 15.6834 20.6129 15.9678 20.6129H16.4839V21.6452H17.5162ZM15.9678 31.9677C15.6834 31.9677 15.4516 31.7365 15.4516 31.4516V30.4194C15.4516 30.1345 15.6834 29.9032 15.9678 29.9032H16.4839V30.9355H17.5162V29.9032H18.5484V30.9355H19.5807V29.9032H20.6129V30.9355H21.6452V29.9032H22.1613H22.6774V30.9355H23.7097V29.9032H24.2258C24.5102 29.9032 24.742 30.1345 24.742 30.4194V31.4516C24.742 31.7365 24.5102 31.9677 24.2258 31.9677H15.9678ZM25.7097 31.8692C25.7474 31.7355 25.7742 31.5972 25.7742 31.4516V30.4194C25.7742 29.5657 25.0795 28.871 24.2258 28.871H23.6147C23.6725 28.7089 23.7097 28.5365 23.7097 28.3548V27.3226C23.7097 27.1409 23.6725 26.9685 23.6147 26.8065H26.2903C27.144 26.8065 27.8387 26.1117 27.8387 25.2581V24.2258C27.8387 23.3721 27.144 22.6774 26.2903 22.6774H25.6793C25.7371 22.5154 25.7742 22.343 25.7742 22.1613V21.129C25.7742 20.2754 25.0795 19.5806 24.2258 19.5806H15.9678C15.1141 19.5806 14.4194 20.2754 14.4194 21.129V22.1613C14.4194 23.015 15.1141 23.7097 15.9678 23.7097H16.5789C16.5211 23.8717 16.4839 24.0441 16.4839 24.2258V25.2581C16.4839 25.4397 16.5211 25.6121 16.5789 25.7742H13.9033C13.0496 25.7742 12.3549 26.4689 12.3549 27.3226V28.3548C12.3549 29.2085 13.0496 29.9032 13.9033 29.9032H14.5143C14.4565 30.0653 14.4194 30.2377 14.4194 30.4194V31.4516C14.4194 31.6317 14.456 31.8026 14.5133 31.9631C10.4694 31.9156 7.19357 28.615 7.19357 24.5603C7.19357 23.0929 7.62351 21.672 8.43745 20.4514L11.0826 16.4839H28.0787L30.7239 20.4519C31.5378 21.6725 31.9678 23.0934 31.9678 24.5608C31.9678 28.2526 29.2488 31.3138 25.7097 31.8692Z" stroke="#0047CC" stroke-width="0.5" mask="url(#path-2-outside-1_1_337)"/>
<path d="M26.4107 17.6899L26.3067 17.7593L26.3761 17.8633L27.0646 18.8955L27.134 18.9995L27.238 18.9301L28.0967 18.3573L28.2007 18.2879L28.1313 18.1839L27.4428 17.1517L27.3734 17.0477L27.2694 17.1171L26.4107 17.6899Z" fill="#0047CC" stroke="#0047CC" stroke-width="0.25"/>
<path d="M28.9021 21.666C29.4751 22.5257 29.778 23.5262 29.7782 24.5593L29.7756 24.7245L29.7737 24.8478L29.8969 24.8514L30.9287 24.8818L31.0534 24.8855L31.0573 24.7608C31.0594 24.694 31.0604 24.6271 31.0604 24.5603C31.0604 23.2731 30.6831 22.0263 29.969 20.9549C29.969 20.9549 29.969 20.9549 29.969 20.9549L28.816 19.2249L28.7467 19.1209L28.6426 19.1902L27.7838 19.7626L27.6798 19.8319L27.7491 19.9359L28.9021 21.666Z" fill="#0047CC" stroke="#0047CC" stroke-width="0.25"/>
<path d="M8.6649 26.8892L8.54939 26.9373L8.59751 27.0527C8.77118 27.4695 8.98956 27.87 9.24636 28.2426L9.31737 28.3456L9.42032 28.2745L10.2699 27.6876L10.3726 27.6166L10.3017 27.5138C10.0956 27.2149 9.92066 26.8943 9.78158 26.5602L9.73356 26.4449L9.61819 26.4928L8.6649 26.8892Z" fill="#0047CC" stroke="#0047CC" stroke-width="0.25"/>
<path d="M8.24129 25.9069L8.26717 26.0292L8.38945 26.0033L9.39951 25.7896L9.52196 25.7637L9.4959 25.6413C9.42085 25.2887 9.38303 24.9248 9.38303 24.5603C9.38303 23.5263 9.68592 22.526 10.2591 21.666L10.2592 21.6658L10.3799 21.4842L10.4491 21.3802L10.3452 21.311L9.48632 20.7386L9.38218 20.6692L9.3129 20.7734L9.19221 20.9549C9.1922 20.9549 9.19219 20.955 9.19218 20.955C8.47813 22.0263 8.10077 23.2731 8.10077 24.5603C8.10077 25.0133 8.14812 25.4669 8.24129 25.9069Z" fill="#0047CC" stroke="#0047CC" stroke-width="0.25"/>
</svg>
